<?xml version="1.0" standalone="no"?>
<!DOCTYPE svg PUBLIC "-//W3C//DTD SVG 20010904//EN"
 "http://www.w3.org/TR/2001/REC-SVG-20010904/DTD/svg10.dtd">
<svg version="1.0" xmlns="http://www.w3.org/2000/svg"
 width="512.000000pt" height="512.000000pt" viewBox="0 0 512.000000 512.000000"
 preserveAspectRatio="xMidYMid meet">
<metadata>
Created by potrace 1.11, written by Peter Selinger 2001-2013
</metadata>
<g transform="translate(0.000000,512.000000) scale(0.100000,-0.100000)"
fill="#000000" stroke="none">
<path d="M2430 4301 c-233 -25 -411 -90 -567 -208 -174 -131 -277 -296 -322
-520 -12 -56 -21 -140 -21 -187 l0 -86 345 0 345 0 0 62 c0 186 108 311 293
337 79 11 175 0 238 -28 81 -36 129 -99 154 -202 19 -83 19 -157 -1 -238 -31
-123 -83 -192 -336 -444 -172 -172 -276 -322 -329 -476 -26 -75 -49 -229 -56
-383 l-6 -128 330 0 330 0 7 124 c7 132 27 220 73 311 18 34 86 111 219 245
207 209 231 237 302 344 111 169 162 324 169 513 21 504 -270 862 -769 947
-110 19 -300 27 -398 17z"/>
<path d="M2414 1530 c-101 -21 -205 -104 -244 -193 -93 -211 7 -451 213 -512
65 -19 199 -19 264 0 173 51 277 229 243 414 -15 81 -40 131 -96 191 -64 68
-141 100 -252 105 -48 2 -106 0 -128 -5z"/>
</g>
</svg>
